ply
format ascii 1.0
comment Created by Blender 2.81 (sub 16) - www.blender.org, source file: ''
element vertex 144
property float x
property float y
property float z
property float nx
property float ny
property float nz
property float s
property float t
element face 84
property list uchar uint vertex_indices
end_header
0.500000 0.050000 0.000000 0.000000 0.923880 -0.382683 1.000000 1.000000
-0.500000 0.035355 -0.035355 0.000000 0.923880 -0.382683 0.875000 0.500000
-0.500000 0.050000 -0.000000 0.000000 0.923880 -0.382683 1.000000 0.500000
0.500000 0.035355 -0.035355 0.000000 0.382683 -0.923880 0.875000 1.000000
-0.500000 -0.000000 -0.050000 0.000000 0.382683 -0.923880 0.750000 0.500000
-0.500000 0.035355 -0.035355 0.000000 0.382683 -0.923880 0.875000 0.500000
0.500000 -0.000000 -0.050000 0.000000 -0.382683 -0.923880 0.750000 1.000000
-0.500000 -0.035355 -0.035355 0.000000 -0.382683 -0.923880 0.625000 0.500000
-0.500000 -0.000000 -0.050000 0.000000 -0.382683 -0.923880 0.750000 0.500000
0.500000 -0.035355 -0.035355 0.000000 -0.923880 -0.382683 0.625000 1.000000
-0.500000 -0.050000 -0.000000 0.000000 -0.923880 -0.382683 0.500000 0.500000
-0.500000 -0.035355 -0.035355 0.000000 -0.923880 -0.382683 0.625000 0.500000
0.500000 -0.050000 0.000000 -0.000000 -0.923880 0.382684 0.500000 1.000000
-0.500000 -0.035355 0.035355 -0.000000 -0.923880 0.382684 0.375000 0.500000
-0.500000 -0.050000 -0.000000 -0.000000 -0.923880 0.382684 0.500000 0.500000
0.500000 -0.035355 0.035355 -0.000000 -0.382683 0.923879 0.375000 1.000000
-0.500000 0.000000 0.050000 -0.000000 -0.382683 0.923879 0.250000 0.500000
-0.500000 -0.035355 0.035355 -0.000000 -0.382683 0.923879 0.375000 0.500000
0.500000 -0.050000 0.000000 1.000000 0.000000 0.000000 0.250000 0.010000
0.500000 -0.035355 -0.035355 1.000000 0.000000 0.000000 0.419706 0.080294
0.500000 -0.000000 -0.050000 1.000000 0.000000 0.000000 0.490000 0.250000
0.500000 0.000000 0.050000 -0.000000 0.382683 0.923879 0.250000 1.000000
-0.500000 0.035355 0.035355 -0.000000 0.382683 0.923879 0.125000 0.500000
-0.500000 0.000000 0.050000 -0.000000 0.382683 0.923879 0.250000 0.500000
0.500000 0.035355 0.035355 -0.000000 0.923880 0.382684 0.125000 1.000000
-0.500000 0.050000 -0.000000 -0.000000 0.923880 0.382684 0.000000 0.500000
-0.500000 0.035355 0.035355 -0.000000 0.923880 0.382684 0.125000 0.500000
-0.500000 0.035355 0.035355 -1.000000 0.000000 0.000000 0.580294 0.419706
-0.500000 0.035355 -0.035355 -1.000000 0.000000 0.000000 0.919706 0.419706
-0.500000 -0.035355 -0.035355 -1.000000 0.000000 0.000000 0.919706 0.080294
0.000000 0.050000 0.500000 0.382683 0.923880 0.000000 1.000000 1.000000
0.035355 0.035355 -0.500000 0.382683 0.923880 0.000000 0.875000 0.500000
0.000000 0.050000 -0.500000 0.382683 0.923880 0.000000 1.000000 0.500000
0.035355 0.035355 0.500000 0.923880 0.382683 0.000000 0.875000 1.000000
0.050000 -0.000000 -0.500000 0.923880 0.382683 0.000000 0.750000 0.500000
0.035355 0.035355 -0.500000 0.923880 0.382683 0.000000 0.875000 0.500000
0.050000 -0.000000 -0.500000 0.923880 -0.382683 0.000000 0.750000 0.500000
0.035355 -0.035355 0.500000 0.923880 -0.382683 0.000000 0.625000 1.000000
0.035355 -0.035355 -0.500000 0.923880 -0.382683 0.000000 0.625000 0.500000
0.035355 -0.035355 0.500000 0.382683 -0.923880 0.000000 0.625000 1.000000
-0.000000 -0.050000 -0.500000 0.382683 -0.923880 0.000000 0.500000 0.500000
0.035355 -0.035355 -0.500000 0.382683 -0.923880 0.000000 0.625000 0.500000
-0.000000 -0.050000 0.500000 -0.382684 -0.923880 0.000000 0.500000 1.000000
-0.035355 -0.035355 -0.500000 -0.382684 -0.923880 0.000000 0.375000 0.500000
-0.000000 -0.050000 -0.500000 -0.382684 -0.923880 0.000000 0.500000 0.500000
-0.035355 -0.035355 0.500000 -0.923879 -0.382683 0.000000 0.375000 1.000000
-0.050000 0.000000 -0.500000 -0.923879 -0.382683 0.000000 0.250000 0.500000
-0.035355 -0.035355 -0.500000 -0.923879 -0.382683 0.000000 0.375000 0.500000
-0.050000 0.000000 0.500000 0.000000 0.000000 1.000000 0.010000 0.250000
-0.000000 -0.050000 0.500000 0.000000 0.000000 1.000000 0.250000 0.010000
0.050000 -0.000000 0.500000 0.000000 0.000000 1.000000 0.490000 0.250000
-0.050000 0.000000 0.500000 -0.923879 0.382683 0.000000 0.250000 1.000000
-0.035355 0.035355 -0.500000 -0.923879 0.382683 0.000000 0.125000 0.500000
-0.050000 0.000000 -0.500000 -0.923879 0.382683 0.000000 0.250000 0.500000
-0.035355 0.035355 0.500000 -0.382684 0.923880 0.000000 0.125000 1.000000
0.000000 0.050000 -0.500000 -0.382684 0.923880 0.000000 0.000000 0.500000
-0.035355 0.035355 -0.500000 -0.382684 0.923880 0.000000 0.125000 0.500000
-0.035355 0.035355 -0.500000 -0.000000 0.000000 -1.000000 0.580294 0.419706
0.035355 0.035355 -0.500000 -0.000000 0.000000 -1.000000 0.919706 0.419706
0.035355 -0.035355 -0.500000 -0.000000 0.000000 -1.000000 0.919706 0.080294
0.000000 -0.500000 0.050000 0.382683 -0.000000 0.923880 1.000000 1.000000
0.035355 0.500000 0.035355 0.382683 -0.000000 0.923880 0.875000 0.500000
0.000000 0.500000 0.050000 0.382683 -0.000000 0.923880 1.000000 0.500000
0.035355 -0.500000 0.035355 0.923880 -0.000000 0.382683 0.875000 1.000000
0.050000 0.500000 0.000000 0.923880 -0.000000 0.382683 0.750000 0.500000
0.035355 0.500000 0.035355 0.923880 -0.000000 0.382683 0.875000 0.500000
0.050000 -0.500000 -0.000000 0.923880 0.000000 -0.382683 0.750000 1.000000
0.035355 0.500000 -0.035355 0.923880 0.000000 -0.382683 0.625000 0.500000
0.050000 0.500000 0.000000 0.923880 0.000000 -0.382683 0.750000 0.500000
0.035355 -0.500000 -0.035355 0.382683 0.000000 -0.923880 0.625000 1.000000
-0.000000 0.500000 -0.050000 0.382683 0.000000 -0.923880 0.500000 0.500000
0.035355 0.500000 -0.035355 0.382683 0.000000 -0.923880 0.625000 0.500000
-0.000000 -0.500000 -0.050000 -0.382684 0.000000 -0.923880 0.500000 1.000000
-0.035355 0.500000 -0.035355 -0.382684 0.000000 -0.923880 0.375000 0.500000
-0.000000 0.500000 -0.050000 -0.382684 0.000000 -0.923880 0.500000 0.500000
-0.035355 -0.500000 -0.035355 -0.923879 0.000000 -0.382683 0.375000 1.000000
-0.050000 0.500000 0.000000 -0.923879 0.000000 -0.382683 0.250000 0.500000
-0.035355 0.500000 -0.035355 -0.923879 0.000000 -0.382683 0.375000 0.500000
0.000000 -0.500000 0.050000 0.000000 -1.000000 0.000000 0.250000 0.490000
-0.050000 -0.500000 -0.000000 0.000000 -1.000000 0.000000 0.010000 0.250000
-0.000000 -0.500000 -0.050000 0.000000 -1.000000 0.000000 0.250000 0.010000
-0.050000 -0.500000 -0.000000 -0.923879 -0.000000 0.382683 0.250000 1.000000
-0.035355 0.500000 0.035355 -0.923879 -0.000000 0.382683 0.125000 0.500000
-0.050000 0.500000 0.000000 -0.923879 -0.000000 0.382683 0.250000 0.500000
-0.035355 -0.500000 0.035355 -0.382684 -0.000000 0.923880 0.125000 1.000000
0.000000 0.500000 0.050000 -0.382684 -0.000000 0.923880 0.000000 0.500000
-0.035355 0.500000 0.035355 -0.382684 -0.000000 0.923880 0.125000 0.500000
0.035355 0.500000 -0.035355 0.000000 1.000000 0.000000 0.919706 0.080294
-0.035355 0.500000 -0.035355 0.000000 1.000000 0.000000 0.580294 0.080294
-0.035355 0.500000 0.035355 0.000000 1.000000 0.000000 0.580294 0.419706
0.500000 0.035355 -0.035355 0.000000 0.923880 -0.382683 0.875000 1.000000
0.500000 -0.000000 -0.050000 0.000000 0.382683 -0.923880 0.750000 1.000000
0.500000 -0.035355 -0.035355 0.000000 -0.382683 -0.923880 0.625000 1.000000
0.500000 -0.050000 0.000000 0.000000 -0.923880 -0.382683 0.500000 1.000000
0.500000 -0.035355 0.035355 -0.000000 -0.923880 0.382684 0.375000 1.000000
0.500000 0.000000 0.050000 -0.000000 -0.382683 0.923879 0.250000 1.000000
0.500000 0.035355 -0.035355 1.000000 0.000000 0.000000 0.419706 0.419706
0.500000 0.050000 0.000000 1.000000 0.000000 0.000000 0.250000 0.490000
0.500000 0.035355 0.035355 1.000000 -0.000000 0.000000 0.080294 0.419706
0.500000 0.000000 0.050000 1.000000 -0.000000 0.000000 0.010000 0.250000
0.500000 -0.035355 0.035355 1.000000 0.000000 -0.000000 0.080294 0.080294
0.500000 0.035355 0.035355 -0.000000 0.382683 0.923879 0.125000 1.000000
0.500000 0.050000 0.000000 -0.000000 0.923880 0.382684 0.000000 1.000000
-0.500000 0.050000 -0.000000 -1.000000 0.000000 0.000000 0.750000 0.490000
-0.500000 -0.000000 -0.050000 -1.000000 0.000000 0.000000 0.990000 0.250000
-0.500000 -0.050000 -0.000000 -1.000000 0.000000 -0.000000 0.750000 0.010000
-0.500000 -0.035355 0.035355 -1.000000 -0.000000 0.000000 0.580294 0.080294
-0.500000 0.000000 0.050000 -1.000000 -0.000000 0.000000 0.510000 0.250000
0.035355 0.035355 0.500000 0.382683 0.923880 -0.000000 0.875000 1.000000
0.050000 -0.000000 0.500000 0.923880 0.382683 -0.000000 0.750000 1.000000
0.050000 -0.000000 0.500000 0.923880 -0.382683 0.000000 0.750000 1.000000
-0.000000 -0.050000 0.500000 0.382683 -0.923880 0.000000 0.500000 1.000000
-0.035355 -0.035355 0.500000 -0.382684 -0.923880 0.000000 0.375000 1.000000
-0.050000 0.000000 0.500000 -0.923879 -0.382683 0.000000 0.250000 1.000000
0.035355 0.035355 0.500000 0.000000 0.000000 1.000000 0.419706 0.419706
0.000000 0.050000 0.500000 0.000000 0.000000 1.000000 0.250000 0.490000
-0.035355 0.035355 0.500000 0.000000 -0.000000 1.000000 0.080294 0.419706
-0.035355 -0.035355 0.500000 0.000000 0.000000 1.000000 0.080294 0.080294
0.035355 -0.035355 0.500000 0.000000 0.000000 1.000000 0.419706 0.080294
-0.035355 0.035355 0.500000 -0.923879 0.382683 0.000000 0.125000 1.000000
0.000000 0.050000 0.500000 -0.382684 0.923880 0.000000 0.000000 1.000000
0.000000 0.050000 -0.500000 -0.000000 0.000000 -1.000000 0.750000 0.490000
0.050000 -0.000000 -0.500000 0.000000 0.000000 -1.000000 0.990000 0.250000
-0.000000 -0.050000 -0.500000 0.000000 0.000000 -1.000000 0.750000 0.010000
-0.035355 -0.035355 -0.500000 0.000000 0.000000 -1.000000 0.580294 0.080294
-0.050000 0.000000 -0.500000 0.000000 -0.000000 -1.000000 0.510000 0.250000
0.035355 -0.500000 0.035355 0.382683 -0.000000 0.923880 0.875000 1.000000
0.050000 -0.500000 -0.000000 0.923880 -0.000000 0.382683 0.750000 1.000000
0.035355 -0.500000 -0.035355 0.923880 0.000000 -0.382683 0.625000 1.000000
-0.000000 -0.500000 -0.050000 0.382683 0.000000 -0.923880 0.500000 1.000000
-0.035355 -0.500000 -0.035355 -0.382684 0.000000 -0.923880 0.375000 1.000000
-0.050000 -0.500000 -0.000000 -0.923879 0.000000 -0.382683 0.250000 1.000000
0.050000 -0.500000 -0.000000 0.000000 -1.000000 0.000000 0.490000 0.250000
0.035355 -0.500000 0.035355 0.000000 -1.000000 0.000000 0.419706 0.419706
-0.035355 -0.500000 0.035355 0.000000 -1.000000 0.000000 0.080294 0.419706
-0.035355 -0.500000 -0.035355 0.000000 -1.000000 0.000000 0.080294 0.080294
0.035355 -0.500000 -0.035355 0.000000 -1.000000 0.000000 0.419706 0.080294
-0.035355 -0.500000 0.035355 -0.923879 -0.000000 0.382683 0.125000 1.000000
0.000000 -0.500000 0.050000 -0.382684 -0.000000 0.923880 0.000000 1.000000
0.000000 0.500000 0.050000 0.000000 1.000000 0.000000 0.750000 0.490000
0.035355 0.500000 0.035355 0.000000 1.000000 0.000000 0.919706 0.419706
0.050000 0.500000 0.000000 -0.000000 1.000000 -0.000000 0.990000 0.250000
-0.000000 0.500000 -0.050000 -0.000000 1.000000 0.000000 0.750000 0.010000
-0.050000 0.500000 0.000000 0.000000 1.000000 0.000000 0.510000 0.250000
3 0 1 2
3 3 4 5
3 6 7 8
3 9 10 11
3 12 13 14
3 15 16 17
3 18 19 20
3 21 22 23
3 24 25 26
3 27 28 29
3 30 31 32
3 33 34 35
3 36 37 38
3 39 40 41
3 42 43 44
3 45 46 47
3 48 49 50
3 51 52 53
3 54 55 56
3 57 58 59
3 60 61 62
3 63 64 65
3 66 67 68
3 69 70 71
3 72 73 74
3 75 76 77
3 78 79 80
3 81 82 83
3 84 85 86
3 87 88 89
3 0 90 1
3 3 91 4
3 6 92 7
3 9 93 10
3 12 94 13
3 15 95 16
3 20 96 97
3 97 98 20
3 98 99 20
3 99 100 20
3 100 18 20
3 21 101 22
3 24 102 25
3 27 103 28
3 28 104 29
3 29 105 27
3 105 106 27
3 106 107 27
3 30 108 31
3 33 109 34
3 36 110 37
3 39 111 40
3 42 112 43
3 45 113 46
3 50 114 115
3 115 116 50
3 116 48 50
3 48 117 49
3 49 118 50
3 51 119 52
3 54 120 55
3 57 121 58
3 58 122 59
3 59 123 57
3 123 124 57
3 124 125 57
3 60 126 61
3 63 127 64
3 66 128 67
3 69 129 70
3 72 130 73
3 75 131 76
3 132 133 78
3 78 134 79
3 79 135 80
3 80 136 132
3 132 78 80
3 81 137 82
3 84 138 85
3 89 139 140
3 140 141 89
3 141 87 89
3 87 142 88
3 88 143 89
