ply
format ascii 1.0
comment Created by Blender 2.81 (sub 16) - www.blender.org, source file: 'Side_Table.blend'
element vertex 330
property float x
property float y
property float z
property float nx
property float ny
property float nz
property float s
property float t
element face 256
property list uchar uint vertex_indices
end_header
-0.138361 0.543390 -0.276721 -0.000000 -0.000000 -1.000000 0.956208 0.396700
-0.276721 0.610193 -0.276721 -0.000000 -0.000000 -1.000000 0.913515 0.482708
-0.138361 0.610193 -0.276721 -0.000000 -0.000000 -1.000000 0.913515 0.396700
-0.276721 0.543390 -0.138361 -1.000000 -0.000000 0.000000 0.258392 0.879223
-0.276721 0.610193 0.000000 -1.000000 -0.000000 0.000000 0.172384 0.836530
-0.276721 0.610193 -0.138361 -1.000000 -0.000000 0.000000 0.258392 0.836530
-0.138361 0.543390 0.000000 0.000000 -1.000000 0.000000 0.266057 0.172113
-0.276721 0.543390 -0.138361 0.000000 -1.000000 0.000000 0.354620 0.257985
-0.138361 0.543390 -0.138361 0.000000 -1.000000 0.000000 0.266057 0.257985
-0.276721 0.610193 -0.138361 0.000000 1.000000 -0.000000 0.000367 0.602210
-0.138361 0.610193 0.000000 0.000000 1.000000 -0.000000 0.088930 0.516337
-0.138361 0.610193 -0.138361 0.000000 1.000000 -0.000000 0.088930 0.602210
0.000000 0.610193 0.000000 0.000000 1.000000 -0.000000 0.177493 0.516337
0.000000 0.610193 -0.138361 0.000000 1.000000 -0.000000 0.177493 0.602210
0.000000 0.543390 0.000000 0.000000 -1.000000 0.000000 0.177493 0.172113
0.000000 0.543390 -0.138361 0.000000 -1.000000 0.000000 0.177493 0.257985
0.000000 0.543390 -0.276721 -0.000000 -0.000000 -1.000000 0.956208 0.310691
0.000000 0.610193 -0.276721 -0.000000 -0.000000 -1.000000 0.913515 0.310691
-0.138361 0.543390 -0.276721 0.000000 -1.000000 0.000000 0.266057 0.343858
0.000000 0.543390 -0.276721 0.000000 -1.000000 0.000000 0.177493 0.343858
-0.138361 0.610193 -0.276721 0.000000 1.000000 -0.000000 0.088930 0.688083
0.000000 0.610193 -0.276721 0.000000 1.000000 -0.000000 0.177493 0.688083
-0.276721 0.610193 -0.276721 0.000000 1.000000 -0.000000 0.000367 0.688083
-0.150898 0.181525 -0.150898 0.000000 -0.000000 1.000000 0.918591 0.602363
-0.173490 0.000592 -0.150898 0.000000 -0.000000 1.000000 0.904108 0.490245
-0.150898 0.000592 -0.150898 0.000000 -0.000000 1.000000 0.918591 0.490245
-0.276721 0.543390 -0.276721 -1.000000 -0.000000 0.000000 0.344401 0.879223
-0.276721 0.610193 -0.276721 -1.000000 -0.000000 0.000000 0.344401 0.836530
-0.150898 0.543390 -0.264183 0.000000 -1.000000 0.000000 0.274082 0.336077
-0.276721 0.543390 -0.276721 0.000000 -1.000000 0.000000 0.354620 0.343858
-0.150898 0.543390 -0.150898 -0.000000 -1.000000 -0.000000 0.274082 0.265767
-0.264183 0.543390 -0.150898 -0.000000 -1.000000 0.000000 0.346595 0.265767
-0.264183 0.543390 -0.264183 -0.000000 -1.000000 0.000000 0.346595 0.336077
-0.150898 0.000592 -0.150898 0.000000 -1.000000 0.000000 0.517528 0.351358
-0.173490 0.000592 -0.173490 0.000000 -1.000000 0.000000 0.503067 0.337337
-0.150898 0.000592 -0.173490 0.000000 -1.000000 0.000000 0.517528 0.337337
-0.150898 0.181525 -0.150898 1.000000 0.000000 -0.000000 0.845231 0.714481
-0.150898 0.000592 -0.173490 1.000000 0.000000 -0.000000 0.830748 0.826599
-0.150898 0.181525 -0.186046 1.000000 0.000000 -0.000000 0.822698 0.714481
-0.186046 0.181524 -0.150898 -0.997601 -0.069231 -0.000000 0.585002 0.711083
-0.173490 0.000592 -0.173490 -0.997601 -0.069231 -0.000000 0.698511 0.696500
-0.173490 0.000592 -0.150898 -0.997601 -0.069231 -0.000000 0.698511 0.711083
-0.150898 0.181525 -0.186046 -0.000000 -0.069231 -0.997601 0.502334 0.376003
-0.173490 0.000592 -0.173490 -0.000000 -0.069231 -0.997601 0.487752 0.489511
-0.186046 0.181524 -0.186046 -0.000000 -0.069231 -0.997601 0.479647 0.376003
-0.150898 0.452924 -0.229083 0.000000 -0.245605 -0.969370 0.502334 0.204539
-0.206162 0.362457 -0.206162 0.000000 -0.245605 -0.969370 0.466662 0.262119
-0.229083 0.452923 -0.229083 0.000000 -0.245605 -0.969370 0.451867 0.204539
-0.150898 0.362457 -0.206162 0.000000 -0.110496 -0.993877 0.502334 0.262119
-0.186046 0.181524 -0.186046 0.000000 -0.110496 -0.993877 0.479647 0.376003
-0.206162 0.362457 -0.206162 0.000000 -0.110496 -0.993877 0.466662 0.262119
-0.229083 0.452923 -0.150898 -0.969370 -0.245605 -0.000000 0.413538 0.711083
-0.206162 0.362457 -0.206162 -0.969370 -0.245605 -0.000000 0.471118 0.675411
-0.206162 0.362457 -0.150898 -0.969370 -0.245605 -0.000000 0.471118 0.711083
-0.206162 0.362457 -0.150898 -0.993877 -0.110496 -0.000000 0.471118 0.711083
-0.186046 0.181524 -0.186046 -0.993877 -0.110496 -0.000000 0.585002 0.688395
-0.186046 0.181524 -0.150898 -0.993877 -0.110496 -0.000000 0.585002 0.711083
-0.150898 0.452924 -0.150898 1.000000 0.000000 -0.000000 0.845231 0.546304
-0.150898 0.362457 -0.206162 1.000000 0.000000 -0.000000 0.809802 0.602363
-0.150898 0.452924 -0.229083 1.000000 0.000000 -0.000000 0.795107 0.546304
-0.150898 0.362457 -0.150898 1.000000 0.000000 -0.000000 0.845231 0.602363
-0.150898 0.452924 -0.150898 0.000000 -0.000000 1.000000 0.918591 0.770540
-0.206162 0.362457 -0.150898 0.000000 -0.000000 1.000000 0.883162 0.714481
-0.150898 0.362457 -0.150898 0.000000 -0.000000 1.000000 0.918591 0.714481
-0.186046 0.181524 -0.150898 0.000000 -0.000000 1.000000 0.896058 0.602363
-0.150898 0.543390 -0.150898 0.000000 -0.000000 1.000000 0.918591 0.826599
-0.229083 0.452923 -0.150898 0.000000 -0.000000 1.000000 0.868467 0.770540
-0.150898 0.543390 -0.150898 1.000000 0.000000 -0.000000 0.845231 0.490245
-0.150898 0.543390 -0.264183 1.000000 0.000000 -0.000000 0.772604 0.490245
-0.264183 0.543390 -0.150898 -0.932286 -0.361722 -0.000000 0.355353 0.711083
-0.229083 0.452923 -0.229083 -0.932286 -0.361722 -0.000000 0.413538 0.660616
-0.229083 0.452923 -0.150898 -0.932286 -0.361722 -0.000000 0.413538 0.711083
-0.150898 0.543390 -0.264183 0.000000 -0.361722 -0.932286 0.502334 0.146354
-0.229083 0.452923 -0.229083 0.000000 -0.361722 -0.932286 0.451867 0.204539
-0.264183 0.543390 -0.264183 0.000000 -0.361722 -0.932286 0.429210 0.146354
0.276721 0.610193 -0.276721 0.000000 0.000000 -1.000000 0.913515 0.138674
0.138361 0.543390 -0.276721 0.000000 0.000000 -1.000000 0.956208 0.224683
0.138361 0.610193 -0.276721 0.000000 0.000000 -1.000000 0.913515 0.224683
0.276721 0.610193 0.000000 1.000000 0.000000 -0.000000 0.919324 0.662262
0.276721 0.543390 -0.138361 1.000000 0.000000 -0.000000 0.962017 0.748270
0.276721 0.610193 -0.138361 1.000000 0.000000 -0.000000 0.919324 0.748270
0.276721 0.543390 -0.138361 0.000000 -1.000000 0.000000 0.000367 0.257985
0.138361 0.543390 0.000000 0.000000 -1.000000 0.000000 0.088930 0.172112
0.138361 0.543390 -0.138361 0.000000 -1.000000 0.000000 0.088930 0.257985
0.138361 0.610193 0.000000 0.000000 1.000000 -0.000000 0.266057 0.516337
0.276721 0.610193 -0.138361 0.000000 1.000000 -0.000000 0.354620 0.602210
0.138361 0.610193 -0.138361 0.000000 1.000000 -0.000000 0.266057 0.602210
0.138361 0.543390 -0.276721 0.000000 -1.000000 0.000000 0.088930 0.343858
0.138361 0.610193 -0.276721 0.000000 1.000000 -0.000000 0.266057 0.688083
0.276721 0.610193 -0.276721 0.000000 1.000000 -0.000000 0.354620 0.688083
0.150898 0.181525 -0.150898 0.000000 0.000000 1.000000 0.615185 0.292341
0.173490 0.000592 -0.150898 0.000000 0.000000 1.000000 0.503067 0.277857
0.186046 0.181524 -0.150898 0.000000 0.000000 1.000000 0.615185 0.269808
0.276721 0.543390 -0.276721 1.000000 0.000000 -0.000000 0.962017 0.834279
0.276721 0.610193 -0.276721 1.000000 0.000000 -0.000000 0.919324 0.834279
0.150898 0.543390 -0.264183 -0.000000 -1.000000 -0.000000 0.080905 0.336077
0.276721 0.543390 -0.276721 -0.000000 -1.000000 -0.000000 0.000367 0.343858
0.264183 0.543390 -0.264183 -0.000000 -1.000000 -0.000000 0.008392 0.336077
0.150898 0.543390 -0.150898 -0.000000 -1.000000 0.000000 0.080904 0.265767
0.264183 0.543390 -0.150898 0.000000 -1.000000 0.000000 0.008392 0.265767
0.173490 0.000592 -0.173490 0.000000 -1.000000 0.000000 0.517528 0.307828
0.150898 0.000592 -0.150898 0.000000 -1.000000 0.000000 0.503067 0.321850
0.150898 0.000592 -0.173490 0.000000 -1.000000 0.000000 0.503067 0.307828
0.150898 0.000592 -0.173490 -1.000000 -0.000000 0.000000 0.839422 0.204497
0.150898 0.181525 -0.150898 -1.000000 -0.000000 0.000000 0.727304 0.218981
0.150898 0.181525 -0.186046 -1.000000 -0.000000 0.000000 0.727304 0.196447
0.186046 0.181524 -0.150898 0.997601 -0.069231 0.000000 0.585002 0.490245
0.173490 0.000592 -0.173490 0.997601 -0.069231 0.000000 0.698511 0.504827
0.186046 0.181524 -0.186046 0.997601 -0.069231 0.000000 0.585002 0.512932
0.173490 0.000592 -0.173490 0.000000 -0.069231 -0.997601 0.698511 0.622643
0.150898 0.181525 -0.186046 0.000000 -0.069231 -0.997601 0.585002 0.637226
0.186046 0.181524 -0.186046 0.000000 -0.069231 -0.997601 0.585002 0.614538
0.206162 0.362457 -0.206162 -0.000000 -0.245605 -0.969370 0.471118 0.601554
0.150898 0.452924 -0.229083 -0.000000 -0.245605 -0.969370 0.413538 0.637226
0.229083 0.452923 -0.229083 -0.000000 -0.245605 -0.969370 0.413538 0.586759
0.186046 0.181524 -0.186046 -0.000000 -0.110496 -0.993877 0.585002 0.614538
0.150898 0.362457 -0.206162 -0.000000 -0.110496 -0.993877 0.471118 0.637226
0.206162 0.362457 -0.206162 -0.000000 -0.110496 -0.993877 0.471118 0.601554
0.229083 0.452923 -0.150898 0.969370 -0.245605 0.000000 0.413538 0.490245
0.206162 0.362457 -0.206162 0.969370 -0.245605 0.000000 0.471118 0.525916
0.229083 0.452923 -0.229083 0.969370 -0.245605 0.000000 0.413538 0.540711
0.206162 0.362457 -0.150898 0.993877 -0.110496 0.000000 0.471118 0.490245
0.186046 0.181524 -0.186046 0.993877 -0.110496 0.000000 0.585002 0.512932
0.206162 0.362457 -0.206162 0.993877 -0.110496 0.000000 0.471118 0.525916
0.150898 0.362457 -0.206162 -1.000000 -0.000000 0.000000 0.615185 0.183551
0.150898 0.452924 -0.150898 -1.000000 -0.000000 0.000000 0.559126 0.218981
0.150898 0.452924 -0.229083 -1.000000 -0.000000 0.000000 0.559126 0.168857
0.150898 0.362457 -0.150898 -1.000000 -0.000000 0.000000 0.615185 0.218981
0.150898 0.452924 -0.150898 0.000000 0.000000 1.000000 0.783363 0.292341
0.206162 0.362457 -0.150898 0.000000 0.000000 1.000000 0.727304 0.256912
0.229083 0.452923 -0.150898 0.000000 0.000000 1.000000 0.783363 0.242217
0.150898 0.362457 -0.150898 0.000000 0.000000 1.000000 0.727304 0.292341
0.150898 0.543390 -0.150898 0.000000 0.000000 1.000000 0.839422 0.292341
0.264183 0.543390 -0.150898 0.000000 0.000000 1.000000 0.839422 0.219714
0.150898 0.543390 -0.150898 -1.000000 -0.000000 0.000000 0.503067 0.218981
0.150898 0.543390 -0.264183 -1.000000 -0.000000 0.000000 0.503067 0.146354
0.264183 0.543390 -0.150898 0.932286 -0.361722 0.000000 0.355353 0.490245
0.229083 0.452923 -0.229083 0.932286 -0.361722 0.000000 0.413538 0.540711
0.264183 0.543390 -0.264183 0.932286 -0.361722 0.000000 0.355353 0.563368
0.229083 0.452923 -0.229083 -0.000000 -0.361722 -0.932286 0.413538 0.586759
0.150898 0.543390 -0.264183 -0.000000 -0.361722 -0.932286 0.355353 0.637226
0.264183 0.543390 -0.264183 -0.000000 -0.361722 -0.932286 0.355353 0.564102
-0.276721 0.610193 0.276721 0.000000 0.000000 1.000000 0.999633 0.482708
-0.138361 0.543390 0.276721 0.000000 0.000000 1.000000 0.956941 0.396700
-0.138361 0.610193 0.276721 0.000000 0.000000 1.000000 0.999633 0.396700
-0.276721 0.543390 0.138361 -1.000000 -0.000000 -0.000000 0.086375 0.879223
-0.276721 0.610193 0.138361 -1.000000 -0.000000 -0.000000 0.086375 0.836531
-0.276721 0.543390 0.138361 -0.000000 -1.000000 -0.000000 0.354620 0.086240
-0.138361 0.543390 0.138361 -0.000000 -1.000000 -0.000000 0.266057 0.086240
-0.276721 0.610193 0.138361 0.000000 1.000000 0.000000 0.000367 0.430465
-0.138361 0.610193 0.138361 0.000000 1.000000 0.000000 0.088930 0.430465
0.000000 0.610193 0.138361 0.000000 1.000000 0.000000 0.177493 0.430465
0.000000 0.543390 0.138361 -0.000000 -1.000000 -0.000000 0.177493 0.086240
0.000000 0.543390 0.276721 0.000000 0.000000 1.000000 0.956941 0.310691
0.000000 0.610193 0.276721 0.000000 0.000000 1.000000 0.999633 0.310691
-0.138361 0.543390 0.276721 -0.000000 -1.000000 -0.000000 0.266057 0.000367
0.000000 0.543390 0.276721 -0.000000 -1.000000 -0.000000 0.177493 0.000367
-0.138361 0.610193 0.276721 0.000000 1.000000 0.000000 0.088930 0.344592
0.000000 0.610193 0.276721 0.000000 1.000000 0.000000 0.177493 0.344592
-0.276721 0.610193 0.276721 0.000000 1.000000 0.000000 0.000367 0.344592
-0.150898 0.181525 0.150898 0.000000 0.000000 -1.000000 0.467471 0.072994
-0.173490 0.000592 0.150898 0.000000 0.000000 -1.000000 0.355353 0.058510
-0.186046 0.181524 0.150898 0.000000 0.000000 -1.000000 0.467471 0.050460
-0.276721 0.543390 0.276721 -1.000000 -0.000000 -0.000000 0.000367 0.879223
-0.276721 0.610193 0.276721 -1.000000 -0.000000 -0.000000 0.000367 0.836531
-0.150898 0.543390 0.264183 0.000000 -1.000000 0.000000 0.274082 0.008148
-0.276721 0.543390 0.276721 0.000000 -1.000000 0.000000 0.354620 0.000367
-0.264183 0.543390 0.264183 0.000000 -1.000000 0.000000 0.346595 0.008148
-0.150898 0.543390 0.150898 0.000000 -1.000000 -0.000000 0.274082 0.078458
-0.264183 0.543390 0.150898 -0.000000 -1.000000 -0.000000 0.346595 0.078458
-0.173490 0.000592 0.173490 -0.000000 -1.000000 -0.000000 0.503067 0.336604
-0.150898 0.000592 0.150898 -0.000000 -1.000000 -0.000000 0.517528 0.322583
-0.150898 0.000592 0.173490 -0.000000 -1.000000 -0.000000 0.517528 0.336604
-0.150898 0.000592 0.173490 1.000000 0.000000 0.000000 0.355353 0.087477
-0.150898 0.181525 0.150898 1.000000 0.000000 0.000000 0.467471 0.072994
-0.150898 0.181525 0.186046 1.000000 0.000000 0.000000 0.467471 0.095527
-0.186046 0.181524 0.150898 -0.997601 -0.069231 0.000000 0.230016 0.688816
-0.173490 0.000592 0.173490 -0.997601 -0.069231 0.000000 0.343524 0.703399
-0.186046 0.181524 0.186046 -0.997601 -0.069231 0.000000 0.230016 0.711504
-0.173490 0.000592 0.173490 -0.000000 -0.069231 0.997601 0.413895 0.146354
-0.150898 0.181525 0.186046 -0.000000 -0.069231 0.997601 0.428477 0.259862
-0.186046 0.181524 0.186046 -0.000000 -0.069231 0.997601 0.405790 0.259862
-0.206162 0.362457 0.206162 0.000000 -0.245605 0.969370 0.392805 0.373746
-0.150898 0.452924 0.229083 0.000000 -0.245605 0.969370 0.428477 0.431327
-0.229083 0.452923 0.229083 0.000000 -0.245605 0.969370 0.378010 0.431327
-0.186046 0.181524 0.186046 0.000000 -0.110496 0.993877 0.405790 0.259862
-0.150898 0.362457 0.206162 0.000000 -0.110496 0.993877 0.428477 0.373746
-0.206162 0.362457 0.206162 0.000000 -0.110496 0.993877 0.392805 0.373746
-0.229083 0.452923 0.150898 -0.969370 -0.245605 0.000000 0.058551 0.688816
-0.206162 0.362457 0.206162 -0.969370 -0.245605 0.000000 0.116132 0.724488
-0.229083 0.452923 0.229083 -0.969370 -0.245605 0.000000 0.058552 0.739283
-0.206162 0.362457 0.150898 -0.993877 -0.110496 0.000000 0.116132 0.688816
-0.186046 0.181524 0.186046 -0.993877 -0.110496 0.000000 0.230016 0.711504
-0.206162 0.362457 0.206162 -0.993877 -0.110496 0.000000 0.116132 0.724488
-0.150898 0.362457 0.206162 1.000000 0.000000 0.000000 0.579589 0.108423
-0.150898 0.452924 0.150898 1.000000 0.000000 0.000000 0.635648 0.072994
-0.150898 0.452924 0.229083 1.000000 0.000000 0.000000 0.635648 0.123118
-0.150898 0.362457 0.150898 1.000000 0.000000 0.000000 0.579589 0.072994
-0.150898 0.452924 0.150898 0.000000 0.000000 -1.000000 0.635648 0.072994
-0.206162 0.362457 0.150898 0.000000 0.000000 -1.000000 0.579589 0.037564
-0.229083 0.452923 0.150898 0.000000 0.000000 -1.000000 0.635648 0.022870
-0.150898 0.362457 0.150898 0.000000 0.000000 -1.000000 0.579589 0.072994
-0.150898 0.543390 0.150898 0.000000 0.000000 -1.000000 0.691708 0.072994
-0.264183 0.543390 0.150898 0.000000 0.000000 -1.000000 0.691708 0.000367
-0.150898 0.543390 0.150898 1.000000 0.000000 0.000000 0.691708 0.072994
-0.150898 0.543390 0.264183 1.000000 0.000000 0.000000 0.691708 0.145621
-0.264183 0.543390 0.150898 -0.932286 -0.361722 0.000000 0.000367 0.688816
-0.229083 0.452923 0.229083 -0.932286 -0.361722 0.000000 0.058552 0.739283
-0.264183 0.543390 0.264183 -0.932286 -0.361722 0.000000 0.000367 0.761940
-0.229083 0.452923 0.229083 0.000000 -0.361722 0.932286 0.378010 0.431327
-0.150898 0.543390 0.264183 0.000000 -0.361722 0.932286 0.428477 0.489511
-0.264183 0.543390 0.264183 0.000000 -0.361722 0.932286 0.355353 0.489511
0.138361 0.543390 0.276721 -0.000000 0.000000 1.000000 0.956941 0.224683
0.276721 0.610193 0.276721 -0.000000 0.000000 1.000000 0.999633 0.138674
0.138361 0.610193 0.276721 -0.000000 0.000000 1.000000 0.999633 0.224683
0.276721 0.543390 0.138361 1.000000 0.000000 0.000000 0.962017 0.576253
0.276721 0.610193 0.138361 1.000000 0.000000 0.000000 0.919324 0.576253
0.276721 0.543390 0.138361 0.000000 -1.000000 -0.000000 0.000367 0.086240
0.138361 0.543390 0.138361 0.000000 -1.000000 -0.000000 0.088930 0.086240
0.276721 0.610193 0.138361 -0.000000 1.000000 0.000000 0.354620 0.430464
0.138361 0.610193 0.138361 -0.000000 1.000000 0.000000 0.266057 0.430465
0.138361 0.543390 0.276721 0.000000 -1.000000 -0.000000 0.088930 0.000367
0.138361 0.610193 0.276721 -0.000000 1.000000 0.000000 0.266057 0.344591
0.276721 0.610193 0.276721 -0.000000 1.000000 0.000000 0.354620 0.344591
0.150898 0.181525 0.150898 0.000000 0.000000 -1.000000 0.771871 0.602363
0.173490 0.000592 0.150898 0.000000 0.000000 -1.000000 0.757387 0.490245
0.150898 0.000592 0.150898 0.000000 0.000000 -1.000000 0.771871 0.490245
0.276721 0.543390 0.276721 1.000000 0.000000 0.000000 0.962017 0.490245
0.276721 0.610193 0.276721 1.000000 0.000000 0.000000 0.919324 0.490245
0.150898 0.543390 0.264183 0.000000 -1.000000 -0.000000 0.080904 0.008148
0.276721 0.543390 0.276721 0.000000 -1.000000 -0.000000 0.000367 0.000367
0.150898 0.543390 0.150898 0.000000 -1.000000 0.000000 0.080904 0.078458
0.264183 0.543390 0.150898 0.000000 -1.000000 -0.000000 0.008392 0.078458
0.264183 0.543390 0.264183 0.000000 -1.000000 -0.000000 0.008392 0.008148
0.150898 0.000592 0.150898 0.000000 -1.000000 -0.000000 0.503067 0.293074
0.173490 0.000592 0.173490 0.000000 -1.000000 -0.000000 0.517528 0.307095
0.150898 0.000592 0.173490 0.000000 -1.000000 -0.000000 0.503067 0.307095
0.150898 0.181525 0.150898 -1.000000 0.000000 -0.000000 0.912782 0.370590
0.150898 0.000592 0.173490 -1.000000 0.000000 -0.000000 0.898299 0.482709
0.150898 0.181525 0.186046 -1.000000 0.000000 -0.000000 0.890249 0.370590
0.186046 0.181524 0.150898 0.997601 -0.069231 0.000000 0.585002 0.784940
0.173490 0.000592 0.173490 0.997601 -0.069231 0.000000 0.698511 0.770357
0.173490 0.000592 0.150898 0.997601 -0.069231 0.000000 0.698511 0.784940
0.150898 0.181525 0.186046 0.000000 -0.069231 0.997601 0.113875 0.835797
0.173490 0.000592 0.173490 0.000000 -0.069231 0.997601 0.000367 0.821215
0.186046 0.181524 0.186046 0.000000 -0.069231 0.997601 0.113875 0.813110
0.150898 0.452924 0.229083 -0.000000 -0.245605 0.969370 0.285339 0.835797
0.206162 0.362457 0.206162 -0.000000 -0.245605 0.969370 0.227759 0.800126
0.229083 0.452923 0.229083 -0.000000 -0.245605 0.969370 0.285339 0.785330
0.150898 0.362457 0.206162 -0.000000 -0.110496 0.993877 0.227759 0.835797
0.186046 0.181524 0.186046 -0.000000 -0.110496 0.993877 0.113875 0.813110
0.206162 0.362457 0.206162 -0.000000 -0.110496 0.993877 0.227759 0.800126
0.229083 0.452923 0.150898 0.969370 -0.245605 0.000000 0.413538 0.784940
0.206162 0.362457 0.206162 0.969370 -0.245605 0.000000 0.471118 0.749268
0.206162 0.362457 0.150898 0.969370 -0.245605 0.000000 0.471118 0.784940
0.206162 0.362457 0.150898 0.993877 -0.110496 0.000000 0.471118 0.784940
0.186046 0.181524 0.186046 0.993877 -0.110496 0.000000 0.585002 0.762252
0.186046 0.181524 0.150898 0.993877 -0.110496 0.000000 0.585002 0.784940
0.150898 0.452924 0.150898 -1.000000 0.000000 -0.000000 0.912782 0.202413
0.150898 0.362457 0.206162 -1.000000 0.000000 -0.000000 0.877353 0.258472
0.150898 0.452924 0.229083 -1.000000 0.000000 -0.000000 0.862658 0.202413
0.150898 0.362457 0.150898 -1.000000 0.000000 -0.000000 0.912782 0.258472
0.150898 0.452924 0.150898 0.000000 0.000000 -1.000000 0.771871 0.770540
0.206162 0.362457 0.150898 0.000000 0.000000 -1.000000 0.736441 0.714481
0.150898 0.362457 0.150898 0.000000 0.000000 -1.000000 0.771871 0.714481
0.186046 0.181524 0.150898 0.000000 0.000000 -1.000000 0.749338 0.602363
0.150898 0.543390 0.150898 0.000000 0.000000 -1.000000 0.771871 0.826599
0.229083 0.452923 0.150898 0.000000 0.000000 -1.000000 0.721747 0.770540
0.150898 0.543390 0.150898 -1.000000 0.000000 -0.000000 0.912782 0.146354
0.150898 0.543390 0.264183 -1.000000 0.000000 -0.000000 0.840155 0.146354
0.264183 0.543390 0.150898 0.932286 -0.361722 0.000000 0.355353 0.784940
0.229083 0.452923 0.229083 0.932286 -0.361722 0.000000 0.413538 0.734473
0.229083 0.452923 0.150898 0.932286 -0.361722 0.000000 0.413538 0.784940
0.150898 0.543390 0.264183 0.000000 -0.361722 0.932286 0.343524 0.835797
0.229083 0.452923 0.229083 0.000000 -0.361722 0.932286 0.285339 0.785330
0.264183 0.543390 0.264183 0.000000 -0.361722 0.932286 0.343524 0.762673
-0.276721 0.543390 -0.276721 0.000000 0.000000 -1.000000 0.956208 0.482709
-0.276721 0.543390 0.000000 -1.000000 -0.000000 -0.000000 0.172384 0.879223
-0.276721 0.543390 0.000000 0.000000 -1.000000 0.000000 0.354620 0.172113
-0.276721 0.610193 0.000000 0.000000 1.000000 0.000000 0.000367 0.516337
-0.173490 0.000592 -0.150898 0.000000 -1.000000 0.000000 0.503067 0.351358
-0.150898 0.000592 -0.150898 1.000000 0.000000 0.000000 0.845231 0.826599
-0.186046 0.181524 -0.186046 -0.997601 -0.069231 0.000000 0.585002 0.688395
-0.150898 0.000592 -0.173490 0.000000 -0.069231 -0.997601 0.502334 0.489511
-0.150898 0.362457 -0.206162 0.000000 -0.245605 -0.969370 0.502334 0.262119
-0.150898 0.181525 -0.186046 -0.000000 -0.110496 -0.993877 0.502334 0.376003
-0.229083 0.452923 -0.229083 -0.969370 -0.245605 0.000000 0.413538 0.660616
-0.206162 0.362457 -0.206162 -0.993877 -0.110496 0.000000 0.471118 0.675411
-0.264183 0.543390 -0.150898 0.000000 -0.000000 1.000000 0.845964 0.826599
-0.264183 0.543390 -0.264183 -0.932286 -0.361722 0.000000 0.355353 0.637959
-0.150898 0.452924 -0.229083 0.000000 -0.361722 -0.932286 0.502334 0.204539
0.276721 0.543390 -0.276721 0.000000 0.000000 -1.000000 0.956208 0.138674
0.276721 0.543390 0.000000 1.000000 0.000000 0.000000 0.962017 0.662262
0.276721 0.543390 0.000000 0.000000 -1.000000 0.000000 0.000367 0.172113
0.276721 0.610193 0.000000 0.000000 1.000000 -0.000000 0.354620 0.516337
0.150898 0.000592 -0.150898 0.000000 -0.000000 1.000000 0.503067 0.292341
0.173490 0.000592 -0.150898 0.000000 -1.000000 0.000000 0.517528 0.321850
0.150898 0.000592 -0.150898 -1.000000 -0.000000 -0.000000 0.839422 0.218981
0.173490 0.000592 -0.150898 0.997601 -0.069231 0.000000 0.698511 0.490245
0.150898 0.000592 -0.173490 0.000000 -0.069231 -0.997601 0.698511 0.637226
0.150898 0.362457 -0.206162 -0.000000 -0.245605 -0.969370 0.471118 0.637226
0.150898 0.181525 -0.186046 0.000000 -0.110496 -0.993877 0.585002 0.637226
0.206162 0.362457 -0.150898 0.969370 -0.245605 0.000000 0.471118 0.490245
0.186046 0.181524 -0.150898 0.993877 -0.110496 0.000000 0.585002 0.490245
0.229083 0.452923 -0.150898 0.932286 -0.361722 0.000000 0.413538 0.490245
0.150898 0.452924 -0.229083 -0.000000 -0.361722 -0.932286 0.413538 0.637226
-0.276721 0.543390 0.276721 0.000000 -0.000000 1.000000 0.956941 0.482708
-0.150898 0.000592 0.150898 0.000000 0.000000 -1.000000 0.355353 0.072994
-0.173490 0.000592 0.150898 0.000000 -1.000000 0.000000 0.503067 0.322583
-0.150898 0.000592 0.150898 1.000000 0.000000 -0.000000 0.355353 0.072994
-0.173490 0.000592 0.150898 -0.997601 -0.069231 -0.000000 0.343524 0.688816
-0.150898 0.000592 0.173490 0.000000 -0.069231 0.997601 0.428477 0.146354
-0.150898 0.362457 0.206162 0.000000 -0.245605 0.969370 0.428477 0.373746
-0.150898 0.181525 0.186046 -0.000000 -0.110496 0.993877 0.428477 0.259862
-0.206162 0.362457 0.150898 -0.969370 -0.245605 -0.000000 0.116132 0.688816
-0.186046 0.181524 0.150898 -0.993877 -0.110496 -0.000000 0.230016 0.688816
-0.229083 0.452923 0.150898 -0.932286 -0.361722 -0.000000 0.058551 0.688816
-0.150898 0.452924 0.229083 0.000000 -0.361722 0.932286 0.428477 0.431327
0.276721 0.543390 0.276721 0.000000 0.000000 1.000000 0.956941 0.138674
0.173490 0.000592 0.150898 -0.000000 -1.000000 -0.000000 0.517528 0.293074
0.150898 0.000592 0.150898 -1.000000 0.000000 0.000000 0.912782 0.482709
0.186046 0.181524 0.186046 0.997601 -0.069231 0.000000 0.585002 0.762252
0.150898 0.000592 0.173490 0.000000 -0.069231 0.997601 0.000367 0.835797
0.150898 0.362457 0.206162 -0.000000 -0.245605 0.969370 0.227759 0.835797
0.150898 0.181525 0.186046 0.000000 -0.110496 0.993877 0.113875 0.835797
0.229083 0.452923 0.229083 0.969370 -0.245605 0.000000 0.413538 0.734473
0.206162 0.362457 0.206162 0.993877 -0.110496 0.000000 0.471118 0.749268
0.264183 0.543390 0.150898 0.000000 0.000000 -1.000000 0.699244 0.826599
0.264183 0.543390 0.264183 0.932286 -0.361722 0.000000 0.355353 0.711816
0.150898 0.452924 0.229083 -0.000000 -0.361722 0.932286 0.285339 0.835797
3 0 1 2
3 3 4 5
3 6 7 8
3 9 10 11
3 11 12 13
3 14 8 15
3 16 2 17
3 15 18 19
3 20 13 21
3 22 11 20
3 23 24 25
3 26 5 27
3 28 29 18
3 30 18 8
3 31 29 32
3 30 7 31
3 33 34 35
3 36 37 38
3 39 40 41
3 42 43 44
3 45 46 47
3 48 49 50
3 51 52 53
3 54 55 56
3 57 58 59
3 60 38 58
3 61 62 63
3 63 64 23
3 65 66 61
3 67 59 68
3 69 70 71
3 72 73 74
3 75 76 77
3 78 79 80
3 81 82 83
3 84 85 86
3 12 86 13
3 83 14 15
3 77 16 17
3 87 15 19
3 13 88 21
3 86 89 88
3 90 91 92
3 80 93 94
3 95 96 97
3 98 87 95
3 96 99 97
3 81 98 99
3 100 101 102
3 103 104 105
3 106 107 108
3 109 110 111
3 112 113 114
3 115 116 117
3 118 119 120
3 121 122 123
3 124 125 126
3 105 127 124
3 128 129 130
3 131 92 129
3 132 130 133
3 126 134 135
3 136 137 138
3 139 140 141
3 142 143 144
3 4 145 146
3 147 6 148
3 10 149 150
3 12 150 151
3 148 14 152
3 144 153 154
3 155 152 156
3 151 157 158
3 150 159 157
3 160 161 162
3 146 163 164
3 165 166 167
3 168 155 165
3 166 169 167
3 147 168 169
3 170 171 172
3 173 174 175
3 176 177 178
3 179 180 181
3 182 183 184
3 185 186 187
3 188 189 190
3 191 192 193
3 194 195 196
3 175 197 194
3 198 199 200
3 201 162 199
3 202 200 203
3 196 204 205
3 206 207 208
3 209 210 211
3 212 213 214
3 215 78 216
3 82 217 218
3 219 84 220
3 220 12 151
3 14 218 152
3 153 214 154
3 152 221 156
3 222 151 158
3 223 220 222
3 224 225 226
3 227 216 228
3 229 230 221
3 231 221 218
3 232 230 233
3 231 217 232
3 234 235 236
3 237 238 239
3 240 241 242
3 243 244 245
3 246 247 248
3 249 250 251
3 252 253 254
3 255 256 257
3 258 259 260
3 261 239 259
3 262 263 264
3 264 265 224
3 266 267 262
3 268 260 269
3 270 271 272
3 273 274 275
3 0 276 1
3 3 277 4
3 6 278 7
3 9 279 10
3 11 10 12
3 14 6 8
3 16 0 2
3 15 8 18
3 20 11 13
3 22 9 11
3 23 64 24
3 26 3 5
3 28 32 29
3 30 28 18
3 31 7 29
3 30 8 7
3 33 280 34
3 36 281 37
3 39 282 40
3 42 283 43
3 45 284 46
3 48 285 49
3 51 286 52
3 54 287 55
3 57 60 58
3 60 36 38
3 61 66 62
3 63 62 64
3 65 288 66
3 67 57 59
3 69 289 70
3 72 290 73
3 75 291 76
3 78 292 79
3 81 293 82
3 84 294 85
3 12 84 86
3 83 82 14
3 77 76 16
3 87 83 15
3 13 86 88
3 86 85 89
3 90 295 91
3 80 79 93
3 95 87 96
3 98 83 87
3 96 81 99
3 81 83 98
3 100 296 101
3 103 297 104
3 106 298 107
3 109 299 110
3 112 300 113
3 115 301 116
3 118 302 119
3 121 303 122
3 124 127 125
3 105 104 127
3 128 131 129
3 131 90 92
3 132 128 130
3 126 125 134
3 136 304 137
3 139 305 140
3 142 306 143
3 4 277 145
3 147 278 6
3 10 279 149
3 12 10 150
3 148 6 14
3 144 143 153
3 155 148 152
3 151 150 157
3 150 149 159
3 160 307 161
3 146 145 163
3 165 155 166
3 168 148 155
3 166 147 169
3 147 148 168
3 170 308 171
3 173 309 174
3 176 310 177
3 179 311 180
3 182 312 183
3 185 313 186
3 188 314 189
3 191 315 192
3 194 197 195
3 175 174 197
3 198 201 199
3 201 160 162
3 202 198 200
3 196 195 204
3 206 316 207
3 209 317 210
3 212 318 213
3 215 292 78
3 82 293 217
3 219 294 84
3 220 84 12
3 14 82 218
3 153 212 214
3 152 218 221
3 222 220 151
3 223 219 220
3 224 265 225
3 227 215 216
3 229 233 230
3 231 229 221
3 232 217 230
3 231 218 217
3 234 319 235
3 237 320 238
3 240 321 241
3 243 322 244
3 246 323 247
3 249 324 250
3 252 325 253
3 255 326 256
3 258 261 259
3 261 237 239
3 262 267 263
3 264 263 265
3 266 327 267
3 268 258 260
3 270 328 271
3 273 329 274
